<?xml version="1.0" encoding="UTF-8" standalone="no"?>
<svg width="124px" height="68px" viewBox="0 0 124 68" version="1.1" xmlns="http://www.w3.org/2000/svg" xmlns:xlink="http://www.w3.org/1999/xlink">
    <!-- Generator: Sketch 39.1 (31720) - http://www.bohemiancoding.com/sketch -->
    <title>pushups_filled</title>
    <desc>Created with Sketch.</desc>
    <defs></defs>
    <g id="Page-1" stroke="none" stroke-width="1" fill="none" fill-rule="evenodd">
        <g id="Intensity" transform="translate(-400.000000, -241.000000)">
            <g id="Group" transform="translate(359.000000, 193.000000)">
                <g id="pushups_filled" transform="translate(41.000000, 48.000000)">
                    <g id="Слой_1">
                        <path d="M124,66.5357143 L0,66.5357143" id="Shape" stroke="#FFFFFF" stroke-width="2"></path>
                        <ellipse id="Oval" fill="#FFFFFF" cx="12.4" cy="12.3214286" rx="12.4" ry="12.3214286"></ellipse>
                        <path d="M120.1684,50.5178571 L38.688,11.57475 C34.224,9.60332143 29.016,11.8211786 27.28,16.2568929 L25.544,21.9321429 C24.8,23.9035714 24.8,26.1214286 25.544,28.0928571 L31.248,43.6178571 L22.16376,56.6342143 C20.67576,58.6081071 20.92376,61.5627857 23.15576,63.0438214 C23.89976,63.7831071 24.89176,64.0270714 25.88376,64.0270714 C27.37176,64.0270714 28.61176,63.2853214 29.60376,62.3045357 L40.92,47.5607143 C41.65904,46.644 41.98144,45.5892857 41.89464,44.5025357 C41.80536,44.3374286 41.71112,44.1723214 41.66152,43.9825714 L38.43752,31.41225 C38.10024,30.0938571 38.90128,28.7508214 40.22808,28.4156786 C41.55736,28.0731429 42.904,28.8765 43.24376,30.1948929 L45.88,40.3526786 L69.59624,46.6686429 L115.4564,63.7264286 C118.4324,64.7096786 122.12512,62.6766429 123.36512,59.7219643 C124.60512,56.7623571 124.27032,52.2132857 120.1684,50.5178571 L120.1684,50.5178571 Z" id="Shape" fill="#FFFFFF"></path>
                    </g>
                </g>
            </g>
        </g>
    </g>
</svg>